<svg width="15" height="17" viewBox="0 0 15 17" fill="none" xmlns="http://www.w3.org/2000/svg">
<path d="M5.35775 15.25C5.86205 15.7168 6.52449 16 7.25 16C7.97551 16 8.63795 15.7168 9.14225 15.25M11.5411 5.5C11.5411 4.30653 11.089 3.16193 10.2843 2.31802C9.47953 1.47411 8.38807 1 7.25 1C6.11193 1 5.02048 1.47411 4.21574 2.31802C3.411 3.16193 2.95891 4.30653 2.95891 5.5C2.95891 7.81764 2.4014 9.40447 1.77862 10.4541C1.25329 11.3394 0.990624 11.7821 1.00026 11.9056C1.01092 12.0423 1.03854 12.0944 1.14361 12.1762C1.23851 12.25 1.66628 12.25 2.52183 12.25H11.9782C12.8337 12.25 13.2615 12.25 13.3564 12.1762C13.4615 12.0944 13.4891 12.0423 13.4997 11.9056C13.5094 11.7821 13.2467 11.3394 12.7214 10.4541C12.0986 9.40447 11.5411 7.81764 11.5411 5.5Z" stroke="white" stroke-width="1.3" stroke-linecap="round" stroke-linejoin="round"/>
</svg>
