<svg width="16" height="16" viewBox="0 0 16 16" fill="none" xmlns="http://www.w3.org/2000/svg">
<path d="M3.21768 10.1889C2.56536 10.1889 2.2392 10.1889 1.98192 10.0823C1.63888 9.94021 1.36634 9.66766 1.22424 9.32462C1.11768 9.06734 1.11768 8.74119 1.11768 8.08887V3.32887C1.11768 2.54479 1.11768 2.15276 1.27027 1.85328C1.40449 1.58985 1.61866 1.37568 1.88209 1.24146C2.18157 1.08887 2.5736 1.08887 3.35768 1.08887H8.11768C8.76999 1.08887 9.09615 1.08887 9.35343 1.19544C9.69647 1.33753 9.96902 1.61007 10.1111 1.95311C10.2177 2.21039 10.2177 2.53655 10.2177 3.18887M8.25768 15.0889H12.8777C13.6617 15.0889 14.0538 15.0889 14.3533 14.9363C14.6167 14.8021 14.8309 14.5879 14.9651 14.3245C15.1177 14.025 15.1177 13.6329 15.1177 12.8489V8.22887C15.1177 7.44479 15.1177 7.05276 14.9651 6.75328C14.8309 6.48985 14.6167 6.27568 14.3533 6.14146C14.0538 5.98887 13.6617 5.98887 12.8777 5.98887H8.25768C7.4736 5.98887 7.08157 5.98887 6.78209 6.14146C6.51866 6.27568 6.30449 6.48985 6.17027 6.75328C6.01768 7.05276 6.01768 7.44479 6.01768 8.22887V12.8489C6.01768 13.6329 6.01768 14.025 6.17027 14.3245C6.30449 14.5879 6.51866 14.8021 6.78209 14.9363C7.08157 15.0889 7.4736 15.0889 8.25768 15.0889Z" stroke="white" stroke-width="1.4" stroke-linecap="round" stroke-linejoin="round"/>
</svg>
