<svg width="15" height="12" viewBox="0 0 15 12" fill="none" xmlns="http://www.w3.org/2000/svg">
<path d="M1.17423 6.47839C1.08431 6.33378 1.03935 6.26147 1.01418 6.14994C0.995274 6.06617 0.995274 5.93405 1.01418 5.85028C1.03935 5.73875 1.08431 5.66644 1.17423 5.52183C1.91733 4.32677 4.12922 1.30566 7.5 1.30566C10.8708 1.30566 13.0827 4.32677 13.8258 5.52183C13.9157 5.66644 13.9607 5.73875 13.9858 5.85028C14.0047 5.93405 14.0047 6.06617 13.9858 6.14994C13.9607 6.26147 13.9157 6.33378 13.8258 6.47839C13.0827 7.67345 10.8708 10.6946 7.5 10.6946C4.12922 10.6946 1.91733 7.67345 1.17423 6.47839Z" stroke="#7D7C87"  stroke-width="1.44444" stroke-linecap="round" stroke-linejoin="round"/>
<path d="M7.5 8.01201C8.594 8.01201 9.48087 7.11125 9.48087 6.00011C9.48087 4.88896 8.594 3.9882 7.5 3.9882C6.40599 3.9882 5.51913 4.88896 5.51913 6.00011C5.51913 7.11125 6.40599 8.01201 7.5 8.01201Z" stroke="#7D7C87"  stroke-width="1.44444" stroke-linecap="round" stroke-linejoin="round"/>
</svg>
