<svg width="12" height="11" viewBox="0 0 12 11" fill="none" xmlns="http://www.w3.org/2000/svg">
<path d="M6 7C6.82843 7 7.5 6.32843 7.5 5.5C7.5 4.67157 6.82843 4 6 4C5.17157 4 4.5 4.67157 4.5 5.5C4.5 6.32843 5.17157 7 6 7Z" stroke="white" stroke-width="0.85" stroke-linecap="round" stroke-linejoin="round"/>
<path d="M9.36364 6.86364C9.30313 7.00073 9.28508 7.15282 9.31182 7.30027C9.33855 7.44772 9.40885 7.58378 9.51364 7.69091L9.54091 7.71818C9.62543 7.80261 9.69249 7.90287 9.73824 8.01324C9.78399 8.1236 9.80753 8.2419 9.80753 8.36136C9.80753 8.48083 9.78399 8.59913 9.73824 8.70949C9.69249 8.81985 9.62543 8.92012 9.54091 9.00455C9.45648 9.08907 9.35622 9.15612 9.24586 9.20187C9.13549 9.24762 9.0172 9.27117 8.89773 9.27117C8.77826 9.27117 8.65996 9.24762 8.5496 9.20187C8.43924 9.15612 8.33898 9.08907 8.25455 9.00455L8.22727 8.97727C8.12015 8.87248 7.98408 8.80219 7.83663 8.77545C7.68918 8.74872 7.5371 8.76677 7.4 8.82727C7.26556 8.88489 7.1509 8.98057 7.07014 9.10252C6.98938 9.22447 6.94604 9.36737 6.94545 9.51364V9.59091C6.94545 9.83201 6.84968 10.0632 6.67919 10.2337C6.5087 10.4042 6.27747 10.5 6.03636 10.5C5.79526 10.5 5.56403 10.4042 5.39354 10.2337C5.22305 10.0632 5.12727 9.83201 5.12727 9.59091V9.55C5.12375 9.39955 5.07505 9.25363 4.9875 9.13123C4.89996 9.00882 4.77761 8.91558 4.63636 8.86364C4.49927 8.80313 4.34718 8.78508 4.19973 8.81182C4.05228 8.83855 3.91622 8.90885 3.80909 9.01364L3.78182 9.04091C3.69739 9.12543 3.59713 9.19249 3.48676 9.23824C3.3764 9.28399 3.2581 9.30753 3.13864 9.30753C3.01917 9.30753 2.90087 9.28399 2.79051 9.23824C2.68015 9.19249 2.57988 9.12543 2.49545 9.04091C2.41093 8.95648 2.34388 8.85622 2.29813 8.74586C2.25238 8.63549 2.22883 8.5172 2.22883 8.39773C2.22883 8.27826 2.25238 8.15996 2.29813 8.0496C2.34388 7.93924 2.41093 7.83898 2.49545 7.75455L2.52273 7.72727C2.62752 7.62015 2.69781 7.48408 2.72455 7.33663C2.75128 7.18918 2.73323 7.0371 2.67273 6.9C2.61511 6.76556 2.51943 6.6509 2.39748 6.57014C2.27553 6.48938 2.13263 6.44604 1.98636 6.44545H1.90909C1.66799 6.44545 1.43675 6.34968 1.26627 6.17919C1.09578 6.0087 1 5.77747 1 5.53636C1 5.29526 1.09578 5.06403 1.26627 4.89354C1.43675 4.72305 1.66799 4.62727 1.90909 4.62727H1.95C2.10045 4.62375 2.24637 4.57505 2.36877 4.4875C2.49118 4.39996 2.58442 4.27761 2.63636 4.13636C2.69687 3.99927 2.71492 3.84718 2.68818 3.69973C2.66145 3.55228 2.59115 3.41622 2.48636 3.30909L2.45909 3.28182C2.37457 3.19739 2.30751 3.09713 2.26176 2.98676C2.21601 2.8764 2.19247 2.7581 2.19247 2.63864C2.19247 2.51917 2.21601 2.40087 2.26176 2.29051C2.30751 2.18015 2.37457 2.07988 2.45909 1.99545C2.54352 1.91093 2.64378 1.84388 2.75415 1.79813C2.86451 1.75238 2.9828 1.72883 3.10227 1.72883C3.22174 1.72883 3.34004 1.75238 3.4504 1.79813C3.56076 1.84388 3.66102 1.91093 3.74545 1.99545L3.77273 2.02273C3.87985 2.12752 4.01592 2.19781 4.16337 2.22455C4.31082 2.25128 4.4629 2.23323 4.6 2.17273H4.63636C4.7708 2.11511 4.88546 2.01943 4.96622 1.89748C5.04699 1.77553 5.09033 1.63263 5.09091 1.48636V1.40909C5.09091 1.16799 5.18669 0.936754 5.35718 0.766267C5.52766 0.595779 5.75889 0.5 6 0.5C6.24111 0.5 6.47234 0.595779 6.64282 0.766267C6.81331 0.936754 6.90909 1.16799 6.90909 1.40909V1.45C6.90967 1.59627 6.95301 1.73917 7.03378 1.86112C7.11454 1.98307 7.2292 2.07874 7.36364 2.13636C7.50073 2.19687 7.65282 2.21492 7.80027 2.18818C7.94772 2.16145 8.08378 2.09115 8.19091 1.98636L8.21818 1.95909C8.30261 1.87457 8.40287 1.80751 8.51324 1.76176C8.6236 1.71601 8.7419 1.69247 8.86136 1.69247C8.98083 1.69247 9.09913 1.71601 9.20949 1.76176C9.31985 1.80751 9.42012 1.87457 9.50455 1.95909C9.58907 2.04352 9.65612 2.14378 9.70187 2.25415C9.74762 2.36451 9.77117 2.4828 9.77117 2.60227C9.77117 2.72174 9.74762 2.84004 9.70187 2.9504C9.65612 3.06076 9.58907 3.16102 9.50455 3.24545L9.47727 3.27273C9.37248 3.37985 9.30219 3.51592 9.27545 3.66337C9.24872 3.81082 9.26677 3.9629 9.32727 4.1V4.13636C9.38489 4.2708 9.48057 4.38546 9.60252 4.46622C9.72447 4.54699 9.86737 4.59033 10.0136 4.59091H10.0909C10.332 4.59091 10.5632 4.68669 10.7337 4.85718C10.9042 5.02766 11 5.25889 11 5.5C11 5.74111 10.9042 5.97234 10.7337 6.14282C10.5632 6.31331 10.332 6.40909 10.0909 6.40909H10.05C9.90373 6.40967 9.76083 6.45301 9.63888 6.53378C9.51693 6.61454 9.42126 6.7292 9.36364 6.86364Z" stroke="white" stroke-width="0.85" stroke-linecap="round" stroke-linejoin="round"/>
</svg>
