<svg width="12" height="10" viewBox="0 0 12 10" fill="none" xmlns="http://www.w3.org/2000/svg">
<path d="M8.06698 7.60211L10.7851 4.99995M10.7851 4.99995L8.06698 2.3978M10.7851 4.99995H4.26169M5.89253 7.60211C5.89253 7.75594 5.89253 7.83285 5.88655 7.89948C5.82448 8.59195 5.29175 9.16176 4.57972 9.2973C4.51122 9.31034 4.4313 9.31884 4.27166 9.33582L3.71641 9.39489C2.88225 9.48362 2.46515 9.52799 2.1338 9.42647C1.69198 9.29112 1.33129 8.98205 1.14198 8.57661C1 8.27253 1 7.87078 1 7.06727V2.93264C1 2.12913 1 1.72737 1.14198 1.4233C1.33129 1.01786 1.69198 0.708788 2.1338 0.573436C2.46516 0.471922 2.88224 0.516288 3.71641 0.605021L4.27166 0.664085C4.43136 0.681072 4.51121 0.689566 4.57972 0.702607C5.29175 0.838143 5.82448 1.40795 5.88655 2.10042C5.89253 2.16705 5.89253 2.24397 5.89253 2.3978" stroke="white" stroke-width="0.9" stroke-linecap="round" stroke-linejoin="round"/>
</svg>
