<svg width="20" height="16" viewBox="0 0 20 16" fill="none" xmlns="http://www.w3.org/2000/svg">
<path d="M5.00039 7.10005V10.7M15.8004 5.30005V8.90005M14.9004 0.800049C17.1042 0.800049 18.2962 1.13733 18.8893 1.39895C18.9683 1.43379 19.0078 1.45121 19.1218 1.55998C19.1901 1.62519 19.3148 1.8165 19.3469 1.90533C19.4004 2.05351 19.4004 2.13451 19.4004 2.29652V11.9701C19.4004 12.788 19.4004 13.1969 19.2777 13.4071C19.153 13.6209 19.0327 13.7203 18.7991 13.8025C18.5696 13.8833 18.1062 13.7943 17.1793 13.6162C16.5306 13.4915 15.7613 13.4 14.9004 13.4C12.2004 13.4 9.50039 15.2 5.90039 15.2C3.69655 15.2 2.50457 14.8628 1.91149 14.6012C1.8325 14.5663 1.79301 14.5489 1.67903 14.4401C1.61071 14.3749 1.486 14.1836 1.45391 14.0948C1.40039 13.9466 1.40039 13.8656 1.40039 13.7036L1.40039 4.03002C1.40039 3.21213 1.40039 2.80318 1.52304 2.59298C1.6478 2.37916 1.76812 2.27975 2.00164 2.19758C2.23121 2.1168 2.69462 2.20583 3.62144 2.38391C4.27015 2.50856 5.03952 2.60005 5.90039 2.60005C8.60039 2.60005 11.3004 0.800049 14.9004 0.800049ZM12.6504 8.00005C12.6504 9.24269 11.643 10.25 10.4004 10.25C9.15775 10.25 8.15039 9.24269 8.15039 8.00005C8.15039 6.75741 9.15775 5.75005 10.4004 5.75005C11.643 5.75005 12.6504 6.75741 12.6504 8.00005Z" stroke="white" stroke-opacity="0.8" stroke-width="1.2" stroke-linecap="round" stroke-linejoin="round"/>
</svg>
