<svg width="26" height="28" viewBox="0 0 26 28" fill="none" xmlns="http://www.w3.org/2000/svg">
<path fill-rule="evenodd" clip-rule="evenodd" d="M5.41189 20.117C4.9504 19.5336 4.38977 18.3409 3.39202 16.893C2.82652 16.074 1.42415 14.5319 1.00652 13.7486C0.644145 13.0564 0.683145 12.746 0.76927 12.1724C0.92202 11.1519 1.96852 10.3573 3.0849 10.4645C3.92827 10.5441 4.64327 11.1015 5.28677 11.628C5.67514 11.9449 6.15289 12.5608 6.44052 12.9085C6.70539 13.227 6.77039 13.3586 7.05314 13.7356C7.42689 14.2345 7.5439 14.4815 7.4009 13.9323C7.28552 13.1263 7.09702 11.7499 6.82402 10.5328C6.61602 9.60975 6.56565 9.46513 6.36739 8.75663C6.15777 8.00263 6.05052 7.4745 5.85389 6.675C5.71739 6.1095 5.47202 4.95413 5.4054 4.30413C5.31277 3.41525 5.26402 1.96575 5.83439 1.2995C6.28127 0.77788 7.30665 0.620255 7.94202 0.942005C8.77402 1.36288 9.2469 2.57188 9.46302 3.0545C9.8514 3.92225 10.0919 4.92488 10.3015 6.24113C10.568 7.9165 11.0588 10.2419 11.075 10.731C11.114 10.1314 10.9645 8.86875 11.0685 8.2935C11.1628 7.77188 11.6015 7.16575 12.1508 7.00163C12.6155 6.8635 13.1599 6.81313 13.6393 6.91225C14.1479 7.01625 14.6841 7.38025 14.884 7.72313C15.4723 8.73713 15.4836 10.809 15.508 10.6985C15.6478 10.0875 15.6234 8.70138 15.9695 8.1245C16.197 7.74425 16.7771 7.40138 17.0859 7.34613C17.5636 7.26163 18.1503 7.23563 18.6524 7.33313C19.057 7.41275 19.6046 7.89375 19.7525 8.1245C20.1068 8.6835 20.3083 10.2646 20.3684 10.8188C20.3928 11.0479 20.4886 10.1818 20.8445 9.62275C21.5043 8.58438 23.8394 8.38288 23.9288 10.6611C23.9694 11.7239 23.9613 11.6751 23.9613 12.3901C23.9613 13.2303 23.9418 13.7356 23.8963 14.3434C23.8459 14.9934 23.7061 16.4624 23.503 17.1741C23.3633 17.6633 22.9001 18.7634 22.4435 19.4231C22.4435 19.4231 20.6983 21.4544 20.5081 22.3693C20.3164 23.2825 20.3798 23.289 20.3424 23.9374C20.305 24.5841 20.539 25.4356 20.539 25.4356C20.539 25.4356 19.2358 25.6046 18.5338 25.4925C17.8984 25.3901 17.1119 24.1259 16.9088 23.7391C16.6293 23.2061 16.0329 23.3085 15.8005 23.7018C15.4349 24.3241 14.6484 25.4405 14.0926 25.5104C13.0071 25.6469 10.7549 25.5608 8.99177 25.5429C8.99177 25.5429 9.29239 23.9 8.6229 23.3361C8.12727 22.9153 7.27414 22.0621 6.76389 21.6136L5.41189 20.117Z" fill="white"/>
<path fill-rule="evenodd" clip-rule="evenodd" d="M5.41189 20.117C4.95039 19.5336 4.38977 18.3409 3.39202 16.893C2.82652 16.074 1.42415 14.5319 1.00652 13.7486C0.644145 13.0564 0.683145 12.746 0.76927 12.1724C0.92202 11.1519 1.96852 10.3573 3.0849 10.4645C3.92827 10.5441 4.64327 11.1015 5.28677 11.628C5.67514 11.9449 6.15289 12.5608 6.44052 12.9085C6.70539 13.227 6.77039 13.3586 7.05314 13.7356C7.42689 14.2345 7.5439 14.4815 7.4009 13.9323C7.28552 13.1263 7.09702 11.7499 6.82402 10.5328C6.61602 9.60975 6.56565 9.46513 6.3674 8.75663C6.15777 8.00263 6.05052 7.4745 5.85389 6.675C5.71739 6.1095 5.47202 4.95413 5.4054 4.30413C5.31277 3.41525 5.26402 1.96575 5.83439 1.2995C6.28127 0.77788 7.30665 0.620255 7.94202 0.942005C8.77402 1.36288 9.2469 2.57188 9.46302 3.0545C9.8514 3.92225 10.0919 4.92488 10.3015 6.24113C10.568 7.9165 11.0588 10.2419 11.075 10.731C11.114 10.1314 10.9645 8.86875 11.0685 8.2935C11.1628 7.77188 11.6015 7.16575 12.1508 7.00163C12.6155 6.8635 13.1599 6.81313 13.6393 6.91225C14.1479 7.01625 14.6841 7.38025 14.884 7.72313C15.4723 8.73713 15.4836 10.809 15.508 10.6985C15.6478 10.0875 15.6234 8.70138 15.9695 8.1245C16.197 7.74425 16.7771 7.40138 17.0859 7.34613C17.5636 7.26163 18.1503 7.23563 18.6524 7.33313C19.057 7.41275 19.6046 7.89375 19.7525 8.1245C20.1068 8.6835 20.3083 10.2646 20.3684 10.8188C20.3928 11.0479 20.4886 10.1818 20.8445 9.62275C21.5043 8.58438 23.8394 8.38288 23.9288 10.6611C23.9694 11.7239 23.9613 11.6751 23.9613 12.3901C23.9613 13.2303 23.9418 13.7356 23.8963 14.3434C23.8459 14.9934 23.7061 16.4624 23.503 17.1741C23.3633 17.6633 22.9001 18.7634 22.4435 19.4231C22.4435 19.4231 20.6983 21.4544 20.5081 22.3693C20.3164 23.2825 20.3798 23.289 20.3424 23.9374C20.305 24.5841 20.539 25.4356 20.539 25.4356C20.539 25.4356 19.2358 25.6046 18.5338 25.4925C17.8984 25.3901 17.1119 24.1259 16.9088 23.7391C16.6293 23.2061 16.0329 23.3085 15.8005 23.7018C15.4349 24.3241 14.6484 25.4405 14.0926 25.5104C13.0071 25.6469 10.7549 25.5608 8.99177 25.5429C8.99177 25.5429 9.2924 23.9 8.6229 23.3361C8.12727 22.9153 7.27414 22.0621 6.76389 21.6136L5.41189 20.117Z" stroke="black" stroke-width="1.21875" stroke-linecap="round" stroke-linejoin="round"/>
<path d="M18.793 20.6931V15.0723" stroke="black" stroke-width="1.21875" stroke-linecap="round"/>
<path d="M15.5182 20.712L15.4922 15.0684" stroke="black" stroke-width="1.21875" stroke-linecap="round"/>
<path d="M12.2734 15.1199L12.3076 20.6871" stroke="black" stroke-width="1.21875" stroke-linecap="round"/>
</svg>
