<svg width="32" height="32" viewBox="0 0 32 32" fill="none" xmlns="http://www.w3.org/2000/svg">
<g filter="url(#filter0_bd_669_754)">
<path fill-rule="evenodd" clip-rule="evenodd" d="M26.7598 13.963C27.5853 13.1375 27.5853 11.7992 26.7598 10.9737L25.7308 9.94466C25.4296 9.64353 24.9301 9.6599 24.5631 9.87587C23.9864 10.2152 23.0744 10.4594 22.1449 9.52987C21.1839 8.56881 21.4285 7.57753 21.748 6.96835C21.9351 6.61155 21.9316 6.14552 21.6467 5.86064L20.7011 4.91501C19.8756 4.08953 18.5373 4.08953 17.7118 4.91501L10.0529 12.5739L10.3825 12.9036C10.6921 13.2131 10.6921 13.715 10.3825 14.0246C10.073 14.3341 9.57107 14.3341 9.26151 14.0246L8.93188 13.6949L5.50192 17.1249C4.67644 17.9504 4.67644 19.2887 5.50192 20.1142L6.46871 21.081C6.75762 21.3699 7.2305 21.3702 7.58047 21.1593C8.22349 20.7719 9.29351 20.4114 10.2785 21.3963C11.2634 22.3813 10.9029 23.4513 10.5154 24.0943C10.3046 24.4443 10.3049 24.9172 10.5938 25.2061L11.5606 26.1729C12.3861 26.9983 13.7244 26.9983 14.5499 26.1729L17.9799 22.7429L17.3576 22.1206C17.0481 21.8111 17.0481 21.3092 17.3576 20.9996C17.6672 20.6901 18.1691 20.6901 18.4786 20.9996L19.1009 21.6219L26.7598 13.963ZM15.4893 20.2523C15.7988 20.5619 16.3007 20.5619 16.6103 20.2523C16.9198 19.9428 16.9198 19.4409 16.6103 19.1313L15.3647 17.8858C15.0552 17.5762 14.5533 17.5762 14.2437 17.8858C13.9342 18.1953 13.9342 18.6972 14.2437 19.0068L15.4893 20.2523ZM12.3754 17.1384C12.685 17.448 13.1868 17.448 13.4964 17.1384C13.8059 16.8289 13.8059 16.327 13.4964 16.0174L12.2508 14.7719C11.9413 14.4623 11.4394 14.4623 11.1298 14.7719C10.8203 15.0814 10.8203 15.5833 11.1298 15.8929L12.3754 17.1384Z" fill="url(#paint0_linear_669_754)" shape-rendering="crispEdges"/>
</g>
<defs>
<filter id="filter0_bd_669_754" x="-34.3705" y="-34.9575" width="101.003" height="101.003" filterUnits="userSpaceOnUse" color-interpolation-filters="sRGB">
<feFlood flood-opacity="0" result="BackgroundImageFix"/>
<feGaussianBlur in="BackgroundImageFix" stdDeviation="19.6267"/>
<feComposite in2="SourceAlpha" operator="in" result="effect1_backgroundBlur_669_754"/>
<feColorMatrix in="SourceAlpha" type="matrix" values="0 0 0 0 0 0 0 0 0 0 0 0 0 0 0 0 0 0 127 0" result="hardAlpha"/>
<feOffset/>
<feGaussianBlur stdDeviation="2.13483"/>
<feComposite in2="hardAlpha" operator="out"/>
<feColorMatrix type="matrix" values="0 0 0 0 0 0 0 0 0 0 0 0 0 0 0 0 0 0 0.06 0"/>
<feBlend mode="normal" in2="effect1_backgroundBlur_669_754" result="effect2_dropShadow_669_754"/>
<feBlend mode="normal" in="SourceGraphic" in2="effect2_dropShadow_669_754" result="shape"/>
</filter>
<linearGradient id="paint0_linear_669_754" x1="16.1309" y1="4.2959" x2="16.1309" y2="26.792" gradientUnits="userSpaceOnUse">
<stop stop-color="white"/>
<stop offset="1" stop-color="white" stop-opacity="0.5"/>
</linearGradient>
</defs>
</svg>
