<svg width="14" height="13" viewBox="0 0 14 13" fill="none" xmlns="http://www.w3.org/2000/svg">
<path d="M9.4 3.10294H13M9.4 11.75V11.0088C9.4 9.97108 9.4 9.45221 9.20381 9.05584C9.03124 8.70719 8.75587 8.42372 8.41718 8.24608C8.03214 8.04412 7.52809 8.04412 6.52 8.04412H3.88C2.87191 8.04412 2.36786 8.04412 1.98282 8.24608C1.64413 8.42372 1.36876 8.70719 1.19619 9.05584C1 9.45221 1 9.97108 1 11.0088V11.75M7.3 3.41176C7.3 4.60567 6.3598 5.57353 5.2 5.57353C4.0402 5.57353 3.1 4.60567 3.1 3.41176C3.1 2.21786 4.0402 1.25 5.2 1.25C6.3598 1.25 7.3 2.21786 7.3 3.41176Z" stroke="white" stroke-width="1.08866" stroke-linecap="round" stroke-linejoin="round"/>
</svg>
