<svg width="25" height="25" viewBox="0 0 25 25" fill="none" xmlns="http://www.w3.org/2000/svg">
<path d="M2.60997 16.4479L4.63043 15.2815C4.73987 15.2183 4.86829 15.1964 4.99251 15.2196L8.9679 15.9637C9.2946 16.0248 9.59618 15.7733 9.5947 15.4409L9.57922 11.9577C9.5788 11.8631 9.60375 11.7701 9.65149 11.6884L11.6577 8.2537C11.7621 8.07494 11.7527 7.85173 11.6337 7.68234L8.25585 2.87426M19.8832 5.02726C14.0596 7.82363 17.2359 11.5295 18.295 12.059C20.2825 13.0525 23.0464 13.1177 23.0464 13.1177C23.055 12.9424 23.0595 12.7659 23.0595 12.5883C23.0595 6.74056 18.3189 2 12.4711 2C6.62337 2 1.88281 6.74056 1.88281 12.5883C1.88281 18.4361 6.62337 23.1767 12.4711 23.1767C12.6487 23.1767 12.8252 23.1723 13.0006 23.1637M17.5089 23.1129L14.1558 14.2729L22.9957 17.626L19.0758 19.193L17.5089 23.1129Z" stroke="url(#paint0_linear_162_881)" stroke-width="2.11767" stroke-linecap="round" stroke-linejoin="round"/>
<defs>
<linearGradient id="paint0_linear_162_881" x1="12.4711" y1="2" x2="12.4711" y2="23.1767" gradientUnits="userSpaceOnUse">
<stop stop-color="white"/>
<stop offset="1" stop-color="white" stop-opacity="0.7"/>
</linearGradient>
</defs>
</svg>
