<svg width="16" height="16" viewBox="0 0 16 16" fill="none" xmlns="http://www.w3.org/2000/svg">
<path d="M14.5605 5.3741L14.5605 1.04077M14.5605 1.04077H10.2272M14.5605 1.04077L8.78277 6.81855M6.6161 2.48522H5.02721C3.81377 2.48522 3.20704 2.48522 2.74357 2.72137C2.33588 2.92909 2.00443 3.26055 1.7967 3.66824C1.56055 4.13171 1.56055 4.73844 1.56055 5.95188V10.5741C1.56055 11.7876 1.56055 12.3943 1.7967 12.8578C2.00443 13.2654 2.33588 13.5969 2.74357 13.8046C3.20704 14.0408 3.81377 14.0408 5.02721 14.0408H9.64944C10.8629 14.0408 11.4696 14.0408 11.9331 13.8046C12.3408 13.5969 12.6722 13.2654 12.8799 12.8578C13.1161 12.3943 13.1161 11.7876 13.1161 10.5741V8.98522" stroke="white" stroke-width="2" stroke-linecap="round" stroke-linejoin="round"/>
</svg>
