<svg width="12" height="12" viewBox="0 0 12 12" fill="none" xmlns="http://www.w3.org/2000/svg">
<path d="M9.25 3.83301C10.1475 3.83301 10.875 3.10547 10.875 2.20801C10.875 1.31055 10.1475 0.583008 9.25 0.583008C8.35254 0.583008 7.625 1.31055 7.625 2.20801C7.625 3.10547 8.35254 3.83301 9.25 3.83301Z" stroke="white" stroke-linecap="round" stroke-linejoin="round"/>
<path d="M2.75 7.625C3.64746 7.625 4.375 6.89746 4.375 6C4.375 5.10254 3.64746 4.375 2.75 4.375C1.85254 4.375 1.125 5.10254 1.125 6C1.125 6.89746 1.85254 7.625 2.75 7.625Z" stroke="white" stroke-linecap="round" stroke-linejoin="round"/>
<path d="M9.25 11.417C10.1475 11.417 10.875 10.6895 10.875 9.79199C10.875 8.89453 10.1475 8.16699 9.25 8.16699C8.35254 8.16699 7.625 8.89453 7.625 9.79199C7.625 10.6895 8.35254 11.417 9.25 11.417Z" stroke="white" stroke-linecap="round" stroke-linejoin="round"/>
<path d="M4.15234 6.81738L7.85193 8.97322" stroke="white" stroke-linecap="round" stroke-linejoin="round"/>
<path d="M7.84651 3.02637L4.15234 5.1822" stroke="white" stroke-linecap="round" stroke-linejoin="round"/>
</svg>
