<svg width="12" height="12" viewBox="0 0 12 12" fill="none" xmlns="http://www.w3.org/2000/svg">
<path d="M7.66667 11V8C7.66667 7.68886 7.66667 7.53329 7.60612 7.41445C7.55285 7.30992 7.46786 7.22493 7.36333 7.17166C7.24449 7.11111 7.08892 7.11111 6.77778 7.11111H5.22222C4.91108 7.11111 4.75551 7.11111 4.63667 7.17166C4.53214 7.22493 4.44715 7.30992 4.39389 7.41445C4.33333 7.53329 4.33333 7.68886 4.33333 8V11M1 3.22222C1 4.1427 1.74619 4.88889 2.66667 4.88889C3.58714 4.88889 4.33333 4.1427 4.33333 3.22222C4.33333 4.1427 5.07953 4.88889 6 4.88889C6.92048 4.88889 7.66667 4.1427 7.66667 3.22222C7.66667 4.1427 8.41286 4.88889 9.33333 4.88889C10.2538 4.88889 11 4.1427 11 3.22222M2.77778 11H9.22222C9.8445 11 10.1556 11 10.3933 10.8789C10.6024 10.7724 10.7724 10.6024 10.8789 10.3933C11 10.1556 11 9.8445 11 9.22222V2.77778C11 2.1555 11 1.84436 10.8789 1.60668C10.7724 1.39761 10.6024 1.22763 10.3933 1.1211C10.1556 1 9.8445 1 9.22222 1H2.77778C2.1555 1 1.84436 1 1.60668 1.1211C1.39761 1.22763 1.22763 1.39761 1.1211 1.60668C1 1.84436 1 2.1555 1 2.77778V9.22222C1 9.8445 1 10.1556 1.1211 10.3933C1.22763 10.6024 1.39761 10.7724 1.60668 10.8789C1.84436 11 2.1555 11 2.77778 11Z" stroke="url(#paint0_linear_672_758)" stroke-linecap="round" stroke-linejoin="round"/>
<defs>
<linearGradient id="paint0_linear_672_758" x1="6" y1="1" x2="6" y2="11" gradientUnits="userSpaceOnUse">
<stop stop-color="white"/>
<stop offset="1" stop-color="white" stop-opacity="0.7"/>
</linearGradient>
</defs>
</svg>
