<svg width="235" height="235" viewBox="0 0 235 235" fill="none" xmlns="http://www.w3.org/2000/svg">
<g clip-path="url(#clip0_178_1180)">
<rect x="0.0976562" y="0.214844" width="234.74" height="234.74" rx="46.9481" fill="url(#paint0_linear_178_1180)"/>
<g filter="url(#filter0_f_178_1180)">
<path d="M160.014 -32.0615L255.377 33.9592L176.152 227.62L-5.77148 110.25L160.014 -32.0615Z" fill="url(#paint1_linear_178_1180)"/>
</g>
<g filter="url(#filter1_bd_178_1180)">
<path fill-rule="evenodd" clip-rule="evenodd" d="M186.865 106.014C192.14 100.738 192.14 92.1838 186.865 86.908L180.288 80.3313C178.363 78.4067 175.171 78.5113 172.825 79.8916C169.139 82.0606 163.31 83.6209 157.37 77.6802C151.227 71.5379 152.791 65.2024 154.833 61.3089C156.029 59.0285 156.007 56.0499 154.186 54.2292L148.142 48.1854C142.866 42.9096 134.312 42.9095 129.036 48.1854L80.0803 97.1416L82.1857 99.247C84.1641 101.225 84.1641 104.433 82.1857 106.412C80.2072 108.39 76.9995 108.39 75.0211 106.412L72.9156 104.306L50.9999 126.222C45.724 131.498 45.724 140.052 50.9999 145.328L57.1788 151.507C59.0254 153.353 62.0477 153.355 64.2844 152.007C68.3941 149.531 75.233 147.227 81.5281 153.522C87.8232 159.817 85.5191 166.656 83.0427 170.766C81.6949 173.002 81.6969 176.025 83.5435 177.871L89.7224 184.05C94.9983 189.326 103.552 189.326 108.828 184.05L130.744 162.134L126.765 158.156C124.787 156.178 124.787 152.97 126.765 150.991C128.744 149.013 131.952 149.013 133.93 150.991L137.908 154.97L186.865 106.014ZM114.824 146.215C116.803 148.193 120.011 148.193 121.989 146.215C123.968 144.237 123.968 141.029 121.989 139.05L114.028 131.09C112.05 129.111 108.842 129.111 106.864 131.09C104.885 133.068 104.885 136.276 106.864 138.254L114.824 146.215ZM94.9228 126.313C96.9012 128.292 100.109 128.292 102.087 126.313C104.066 124.335 104.066 121.127 102.087 119.149L94.1267 111.188C92.1483 109.21 88.9406 109.21 86.9621 111.188C84.9837 113.167 84.9837 116.374 86.9621 118.353L94.9228 126.313Z" fill="url(#paint2_linear_178_1180)" shape-rendering="crispEdges"/>
</g>
<circle cx="83.7236" cy="39.8272" r="4.40138" fill="white" fill-opacity="0.18"/>
<circle cx="209.896" cy="107.315" r="4.40138" fill="white" fill-opacity="0.11"/>
<circle cx="177.62" cy="221.751" r="4.40138" fill="white" fill-opacity="0.15"/>
<circle cx="101.329" cy="224.686" r="4.40138" fill="white" fill-opacity="0.19"/>
<circle cx="33.8408" cy="183.605" r="4.40138" fill="white" fill-opacity="0.15"/>
<circle cx="10.3662" cy="121.986" r="4.40138" fill="white" fill-opacity="0.15"/>
<circle cx="198.159" cy="60.3672" r="4.40138" fill="white" fill-opacity="0.1"/>
<g filter="url(#filter2_i_178_1180)">
<rect x="8.90039" y="9.01758" width="217.135" height="217.135" rx="38.1453" fill="#D9D9D9" fill-opacity="0.01"/>
</g>
<path d="M42.9 45.3227C43.7316 43.1607 44.1473 42.0798 44.7475 41.7662C45.2677 41.4944 45.888 41.4944 46.4082 41.7662C47.0084 42.0798 47.4242 43.1607 48.2557 45.3227L48.6875 46.4454C49.1932 47.7602 49.4461 48.4176 49.8392 48.9706C50.1877 49.4607 50.6159 49.8889 51.106 50.2374C51.659 50.6306 52.3164 50.8834 53.6312 51.3891L54.754 51.8209C56.9159 52.6525 57.9969 53.0682 58.3104 53.6684C58.5822 54.1886 58.5822 54.8089 58.3104 55.3291C57.9969 55.9293 56.9159 56.3451 54.754 57.1766L53.6312 57.6084C52.3164 58.1141 51.659 58.3669 51.106 58.7601C50.6159 59.1086 50.1877 59.5368 49.8392 60.0269C49.4461 60.5799 49.1932 61.2373 48.6875 62.5521L48.2557 63.6748C47.4242 65.8368 47.0084 66.9178 46.4082 67.2313C45.888 67.5031 45.2677 67.5031 44.7475 67.2313C44.1473 66.9178 43.7316 65.8368 42.9 63.6748L42.4682 62.5521C41.9625 61.2373 41.7097 60.5799 41.3165 60.0269C40.968 59.5368 40.5398 59.1086 40.0497 58.7601C39.4967 58.3669 38.8393 58.1141 37.5246 57.6084L36.4018 57.1766C34.2398 56.3451 33.1589 55.9293 32.8453 55.3291C32.5735 54.8089 32.5735 54.1886 32.8453 53.6684C33.1589 53.0682 34.2398 52.6525 36.4018 51.8209L37.5245 51.3891C38.8393 50.8834 39.4967 50.6306 40.0497 50.2374C40.5398 49.8889 40.968 49.4607 41.3165 48.9706C41.7097 48.4176 41.9625 47.7602 42.4682 46.4454L42.9 45.3227Z" fill="white" fill-opacity="0.79"/>
<path d="M192.297 144.857C192.751 143.678 192.978 143.088 193.305 142.917C193.589 142.769 193.927 142.769 194.211 142.917C194.538 143.088 194.765 143.678 195.218 144.857L195.454 145.47C195.73 146.187 195.868 146.545 196.082 146.847C196.272 147.114 196.506 147.348 196.773 147.538C197.075 147.752 197.433 147.89 198.151 148.166L198.763 148.402C199.942 148.855 200.532 149.082 200.703 149.409C200.851 149.693 200.851 150.032 200.703 150.315C200.532 150.643 199.942 150.869 198.763 151.323L198.151 151.559C197.433 151.834 197.075 151.972 196.773 152.187C196.506 152.377 196.272 152.61 196.082 152.878C195.868 153.179 195.73 153.538 195.454 154.255L195.218 154.867C194.765 156.047 194.538 156.636 194.211 156.807C193.927 156.956 193.589 156.956 193.305 156.807C192.978 156.636 192.751 156.047 192.297 154.867L192.062 154.255C191.786 153.538 191.648 153.179 191.433 152.878C191.243 152.61 191.01 152.377 190.742 152.187C190.441 151.972 190.082 151.834 189.365 151.559L188.753 151.323C187.573 150.869 186.984 150.643 186.813 150.315C186.665 150.032 186.665 149.693 186.813 149.409C186.984 149.082 187.573 148.855 188.753 148.402L189.365 148.166C190.082 147.89 190.441 147.752 190.742 147.538C191.01 147.348 191.243 147.114 191.433 146.847C191.648 146.545 191.786 146.187 192.062 145.47L192.297 144.857Z" fill="white" fill-opacity="0.42"/>
<path d="M156.6 193.07C157.205 191.498 157.507 190.712 157.944 190.484C158.322 190.286 158.773 190.286 159.151 190.484C159.588 190.712 159.89 191.498 160.495 193.07L160.809 193.887C161.177 194.843 161.361 195.321 161.647 195.723C161.9 196.08 162.212 196.391 162.568 196.645C162.97 196.931 163.448 197.115 164.405 197.482L165.221 197.796C166.793 198.401 167.58 198.703 167.808 199.14C168.005 199.518 168.005 199.969 167.808 200.348C167.58 200.784 166.793 201.087 165.221 201.691L164.405 202.005C163.448 202.373 162.97 202.557 162.568 202.843C162.212 203.096 161.9 203.408 161.647 203.764C161.361 204.166 161.177 204.645 160.809 205.601L160.495 206.417C159.89 207.99 159.588 208.776 159.151 209.004C158.773 209.202 158.322 209.202 157.944 209.004C157.507 208.776 157.205 207.99 156.6 206.417L156.286 205.601C155.918 204.645 155.734 204.166 155.448 203.764C155.195 203.408 154.884 203.096 154.527 202.843C154.125 202.557 153.647 202.373 152.691 202.005L151.874 201.691C150.302 201.087 149.516 200.784 149.288 200.348C149.09 199.969 149.09 199.518 149.288 199.14C149.516 198.703 150.302 198.401 151.874 197.796L152.691 197.482C153.647 197.115 154.125 196.931 154.527 196.645C154.884 196.391 155.195 196.08 155.448 195.723C155.734 195.321 155.918 194.843 156.286 193.887L156.6 193.07Z" fill="white" fill-opacity="0.59"/>
</g>
<rect x="4.49904" y="4.61623" width="225.938" height="225.938" rx="42.5467" stroke="url(#paint3_linear_178_1180)" stroke-width="8.80277"/>
<defs>
<filter id="filter0_f_178_1180" x="-14.5743" y="-40.8643" width="278.754" height="277.287" filterUnits="userSpaceOnUse" color-interpolation-filters="sRGB">
<feFlood flood-opacity="0" result="BackgroundImageFix"/>
<feBlend mode="normal" in="SourceGraphic" in2="BackgroundImageFix" result="shape"/>
<feGaussianBlur stdDeviation="4.40138" result="effect1_foregroundBlur_178_1180"/>
</filter>
<filter id="filter1_bd_178_1180" x="-203.836" y="-206.65" width="645.537" height="645.536" filterUnits="userSpaceOnUse" color-interpolation-filters="sRGB">
<feFlood flood-opacity="0" result="BackgroundImageFix"/>
<feGaussianBlur in="BackgroundImageFix" stdDeviation="125.439"/>
<feComposite in2="SourceAlpha" operator="in" result="effect1_backgroundBlur_178_1180"/>
<feColorMatrix in="SourceAlpha" type="matrix" values="0 0 0 0 0 0 0 0 0 0 0 0 0 0 0 0 0 0 127 0" result="hardAlpha"/>
<feOffset/>
<feGaussianBlur stdDeviation="13.6443"/>
<feComposite in2="hardAlpha" operator="out"/>
<feColorMatrix type="matrix" values="0 0 0 0 0 0 0 0 0 0 0 0 0 0 0 0 0 0 0.06 0"/>
<feBlend mode="normal" in2="effect1_backgroundBlur_178_1180" result="effect2_dropShadow_178_1180"/>
<feBlend mode="normal" in="SourceGraphic" in2="effect2_dropShadow_178_1180" result="shape"/>
</filter>
<filter id="filter2_i_178_1180" x="8.90039" y="9.01758" width="217.135" height="217.135" filterUnits="userSpaceOnUse" color-interpolation-filters="sRGB">
<feFlood flood-opacity="0" result="BackgroundImageFix"/>
<feBlend mode="normal" in="SourceGraphic" in2="BackgroundImageFix" result="shape"/>
<feColorMatrix in="SourceAlpha" type="matrix" values="0 0 0 0 0 0 0 0 0 0 0 0 0 0 0 0 0 0 127 0" result="hardAlpha"/>
<feMorphology radius="2.93426" operator="erode" in="SourceAlpha" result="effect1_innerShadow_178_1180"/>
<feOffset/>
<feGaussianBlur stdDeviation="4.40138"/>
<feComposite in2="hardAlpha" operator="arithmetic" k2="-1" k3="1"/>
<feColorMatrix type="matrix" values="0 0 0 0 0 0 0 0 0 0 0 0 0 0 0 0 0 0 0.04 0"/>
<feBlend mode="normal" in2="shape" result="effect1_innerShadow_178_1180"/>
</filter>
<linearGradient id="paint0_linear_178_1180" x1="117.468" y1="0.214844" x2="117.468" y2="234.955" gradientUnits="userSpaceOnUse">
<stop stop-color="#FF00B2"/>
<stop offset="1" stop-color="#D900FF"/>
</linearGradient>
<linearGradient id="paint1_linear_178_1180" x1="226.035" y1="-15.9231" x2="64.6507" y2="173.336" gradientUnits="userSpaceOnUse">
<stop stop-color="white" stop-opacity="0.58"/>
<stop offset="1" stop-color="white" stop-opacity="0"/>
</linearGradient>
<linearGradient id="paint2_linear_178_1180" x1="167.347" y1="67.7026" x2="74.9184" y2="160.132" gradientUnits="userSpaceOnUse">
<stop stop-color="white" stop-opacity="0.8"/>
<stop offset="0.618206" stop-color="white" stop-opacity="0.78"/>
<stop offset="1" stop-color="white" stop-opacity="0.46"/>
</linearGradient>
<linearGradient id="paint3_linear_178_1180" x1="215.766" y1="11.9519" x2="17.7032" y2="224.685" gradientUnits="userSpaceOnUse">
<stop stop-color="white"/>
<stop offset="0.181057" stop-color="white" stop-opacity="0.37"/>
<stop offset="0.33" stop-color="white" stop-opacity="0.28"/>
<stop offset="1" stop-color="white" stop-opacity="0.34"/>
</linearGradient>
<clipPath id="clip0_178_1180">
<rect x="0.0976562" y="0.214844" width="234.74" height="234.74" rx="46.9481" fill="white"/>
</clipPath>
</defs>
</svg>
