<svg width="32" height="34" viewBox="0 0 32 34" fill="none" xmlns="http://www.w3.org/2000/svg">
<path d="M29.3258 27.2265C29.0923 28.945 27.9232 30.431 26.287 31.0916C25.4853 31.4211 24.6166 31.5212 23.7479 31.4211C22.9135 31.3226 22.0775 31.0577 21.2104 30.5634C20.0086 29.9013 18.8052 28.8788 17.4025 27.3589C19.6069 24.6825 20.9426 22.2387 21.4439 20.0582C21.6774 19.0342 21.7117 18.1087 21.6105 17.2495C21.4766 16.4241 21.1761 15.6634 20.7091 15.0028C19.6739 13.5168 17.9365 12.6575 15.9999 12.6575C14.0633 12.6575 12.3259 13.5491 11.2907 15.0028C10.8237 15.6634 10.5232 16.4241 10.3893 17.2495C10.2554 18.1087 10.2897 19.0665 10.5559 20.0582C11.0572 22.2387 12.4256 24.7164 14.5973 27.3912C13.2273 28.9111 11.9928 29.9351 10.7894 30.5958C9.92074 31.0916 9.08632 31.3565 8.25189 31.455C7.391 31.5505 6.52077 31.4365 5.71437 31.1255C4.07821 30.4649 2.90908 28.9773 2.67556 27.2603C2.57593 26.435 2.64287 25.6096 2.97602 24.6841C3.07565 24.353 3.24378 24.0235 3.41036 23.6277C3.64387 23.0995 3.91163 22.5375 4.17784 21.9754L4.21209 21.9092C6.5161 16.9861 8.98824 11.9645 11.56 7.07536L11.6596 6.87672C11.9274 6.38241 12.1936 5.85268 12.4614 5.35684C12.7291 4.82865 13.0296 4.3328 13.397 3.90317C14.0991 3.11013 15.0332 2.68049 16.0684 2.68049C17.1036 2.68049 18.0393 3.11013 18.7398 3.90317C19.1072 4.3328 19.4077 4.82865 19.6754 5.35684C19.9432 5.85268 20.2094 6.38087 20.4772 6.87517L20.5783 7.07382C23.1159 11.9953 25.588 17.0169 27.892 21.94V21.9723C28.1598 22.5005 28.3933 23.0965 28.6595 23.6246C28.8261 24.0219 28.9942 24.3515 29.0938 24.681C29.36 25.5418 29.4597 26.3672 29.3258 27.2265ZM15.9999 25.6727C14.1972 23.426 13.028 21.3117 12.6264 19.5285C12.4598 18.7678 12.4256 18.1072 12.5268 17.5128C12.5937 16.9846 12.7945 16.5211 13.0607 16.1253C13.6959 15.2337 14.7638 14.6717 15.9999 14.6717C17.236 14.6717 18.3382 15.2014 18.9391 16.1253C19.2068 16.5226 19.4061 16.9846 19.473 17.5128C19.5727 18.1072 19.54 18.8017 19.3734 19.5285C18.9733 21.2794 17.8042 23.3937 15.9999 25.6727ZM31.0631 23.9557C30.8966 23.56 30.7284 23.1303 30.5619 22.7669C30.2941 22.1725 30.0279 21.6105 29.7928 21.0823L29.7601 21.0499C27.4561 16.0945 24.984 11.0729 22.3795 6.11755L22.2799 5.9189C22.0121 5.42305 21.7459 4.89487 21.4782 4.36668C21.1434 3.77228 20.8103 3.144 20.2763 2.5496C19.2068 1.22683 17.6703 0.5 16.0342 0.5C14.3637 0.5 12.8615 1.22683 11.7577 2.48185C11.2564 3.07625 10.889 3.70453 10.5559 4.29893C10.2881 4.82711 10.0219 5.3553 9.75417 5.85114L9.65453 6.04825C7.08276 11.0036 4.57793 16.0252 2.27392 20.9806L2.24123 21.0469C2.00771 21.575 1.73995 22.1371 1.47218 22.7315C1.29316 23.1226 1.12658 23.5199 0.970907 23.9203C0.53657 25.143 0.402688 26.2994 0.569262 27.4882C0.936658 29.9659 2.60707 32.0479 4.91108 32.9718C5.77975 33.3352 6.68112 33.5 7.61673 33.5C7.88449 33.5 8.21764 33.4677 8.4854 33.4338C9.58759 33.3014 10.7225 32.9395 11.8247 32.3112C13.1946 31.552 14.4961 30.4618 15.9657 28.8757C17.4352 30.4618 18.7709 31.552 20.1066 32.3112C21.2088 32.9395 22.3437 33.3014 23.4459 33.4338C23.7137 33.4677 24.0468 33.5 24.3146 33.5C25.2502 33.5 26.1842 33.3352 27.0202 32.9718C29.3585 32.0463 30.9946 29.9321 31.362 27.4882C31.6298 26.3333 31.4959 25.1784 31.0631 23.9557Z" fill="#FF444B"/>
</svg>
