<svg width="46" height="48" viewBox="0 0 46 48" fill="none" xmlns="http://www.w3.org/2000/svg">
<path d="M40.2235 38.9022C20.7182 48.1851 8.61303 40.4184 0.864125 35.701C0.384626 35.4037 -0.430355 35.7705 0.276753 36.5827C2.8583 39.7129 11.3186 47.2576 22.3617 47.2576C33.4124 47.2576 39.9866 41.2278 40.809 40.1759C41.6258 39.133 41.0488 38.5576 40.2233 38.9022H40.2235ZM45.7015 35.8769C45.1777 35.1948 42.5164 35.0677 40.8416 35.2734C39.1642 35.4732 36.6464 36.4984 36.8653 37.114C36.9776 37.3445 37.2069 37.2411 38.3592 37.1375C39.5147 37.0222 42.7516 36.6137 43.4261 37.4954C44.1037 38.3832 42.3937 42.6125 42.0814 43.2946C41.7796 43.9767 42.1967 44.1526 42.7635 43.6983C43.3225 43.2442 44.3345 42.0682 45.0136 40.4039C45.6881 38.7306 46.0996 36.3963 45.7015 35.8769Z" fill="#FF9900"/>
<path fill-rule="evenodd" clip-rule="evenodd" d="M27.1074 19.9608C27.1074 22.3964 27.169 24.4277 25.9379 26.5907C24.9442 28.3495 23.3702 29.431 21.6116 29.431C19.211 29.431 17.8129 27.602 17.8129 24.9026C17.8129 19.5738 22.5875 18.6066 27.1074 18.6066V19.9608ZM33.4121 35.1995C32.9988 35.5687 32.4008 35.5952 31.9349 35.3489C29.8597 33.6255 29.4903 32.8253 28.3472 31.1809C24.9179 34.6807 22.4909 35.727 18.0416 35.727C12.7833 35.727 8.68555 32.4822 8.68555 25.9841C8.68555 20.9105 11.438 17.4547 15.3507 15.7665C18.745 14.2715 23.4846 14.0077 27.1074 13.5946V12.7855C27.1074 11.2994 27.2216 9.54079 26.3512 8.25706C25.5861 7.10512 24.1265 6.63025 22.8425 6.63025C20.4597 6.63025 18.3317 7.85245 17.8129 10.3849C17.7072 10.9478 17.2941 11.5018 16.7314 11.5281L10.664 10.8775C10.1541 10.763 9.59135 10.3498 9.73203 9.56711C11.1301 2.21615 17.7688 0.000114441 23.7129 0.000114441C26.7555 0.000114441 30.7299 0.809165 33.1305 3.11306C36.1731 5.95317 35.8828 9.74301 35.8828 13.867V23.6099C35.8828 26.5381 37.0963 27.8218 38.2393 29.4047C38.6438 29.9674 38.7318 30.6447 38.2217 31.0665C36.9467 32.1304 34.678 34.1091 33.4295 35.2171L33.4119 35.1995" fill="black"/>
<path d="M40.2235 38.9022C20.7182 48.1851 8.61303 40.4184 0.864125 35.701C0.384626 35.4037 -0.430355 35.7705 0.276753 36.5827C2.8583 39.7129 11.3186 47.2576 22.3617 47.2576C33.4124 47.2576 39.9866 41.2278 40.809 40.1759C41.6258 39.133 41.0488 38.5576 40.2233 38.9022H40.2235ZM45.7015 35.8769C45.1777 35.1948 42.5164 35.0677 40.8416 35.2734C39.1642 35.4732 36.6464 36.4984 36.8653 37.114C36.9776 37.3445 37.2069 37.2411 38.3592 37.1375C39.5147 37.0222 42.7516 36.6137 43.4261 37.4954C44.1037 38.3832 42.3937 42.6125 42.0814 43.2946C41.7796 43.9767 42.1967 44.1526 42.7635 43.6983C43.3225 43.2442 44.3345 42.0682 45.0136 40.4039C45.6881 38.7306 46.0996 36.3963 45.7015 35.8769Z" fill="#FF9900"/>
<path fill-rule="evenodd" clip-rule="evenodd" d="M27.1074 19.9608C27.1074 22.3964 27.169 24.4277 25.9379 26.5907C24.9442 28.3495 23.3702 29.431 21.6116 29.431C19.211 29.431 17.8129 27.602 17.8129 24.9026C17.8129 19.5738 22.5875 18.6066 27.1074 18.6066V19.9608ZM33.4121 35.1995C32.9988 35.5687 32.4008 35.5952 31.9349 35.3489C29.8597 33.6255 29.4903 32.8253 28.3472 31.1809C24.9179 34.6807 22.4909 35.727 18.0416 35.727C12.7833 35.727 8.68555 32.4822 8.68555 25.9841C8.68555 20.9105 11.438 17.4547 15.3507 15.7665C18.745 14.2715 23.4846 14.0077 27.1074 13.5946V12.7855C27.1074 11.2994 27.2216 9.54079 26.3512 8.25706C25.5861 7.10512 24.1265 6.63025 22.8425 6.63025C20.4597 6.63025 18.3317 7.85245 17.8129 10.3849C17.7072 10.9478 17.2941 11.5018 16.7314 11.5281L10.664 10.8775C10.1541 10.763 9.59135 10.3498 9.73203 9.56711C11.1301 2.21615 17.7688 0.000114441 23.7129 0.000114441C26.7555 0.000114441 30.7299 0.809165 33.1305 3.11306C36.1731 5.95317 35.8828 9.74301 35.8828 13.867V23.6099C35.8828 26.5381 37.0963 27.8218 38.2393 29.4047C38.6438 29.9674 38.7318 30.6447 38.2217 31.0665C36.9467 32.1304 34.678 34.1091 33.4295 35.2171L33.4119 35.1995" fill="white"/>
</svg>
