<svg width="49" height="49" viewBox="0 0 49 49" fill="none" xmlns="http://www.w3.org/2000/svg">
<path d="M0.84082 39.6358C0.84082 44.4232 4.72175 48.3041 9.50911 48.3041H39.6362C44.4236 48.3041 48.3045 44.4232 48.3045 39.6358V9.50864C48.3045 4.72128 44.4236 0.840354 39.6362 0.840354H9.50912C4.72176 0.840354 0.84082 4.72128 0.84082 9.50865L0.84082 39.6358Z" fill="#006FCF"/>
<path d="M18.0352 40.7927L36.8028 40.8325L39.7503 37.5442L42.7188 40.8201H48.3049V36.0225L44.8063 32.2495L48.3049 28.5107V23.8129L18.0352 23.7857L18.0352 40.7927Z" fill="white"/>
<path fill-rule="evenodd" clip-rule="evenodd" d="M20.0557 38.9284V25.6575H31.3081V28.7146H23.6988V30.7898H31.1266V33.7962H23.6988V35.8345H31.3081V38.9283L20.0557 38.9284Z" fill="#006FCF"/>
<path d="M43.6925 25.6586L39.8769 29.8648L36.0723 25.6586H31.2529L37.4794 32.2863L31.253 38.9293H35.9414L39.7738 34.6809L43.646 38.9293H48.3047V38.7409L42.2109 32.2863L48.3047 25.7631V25.6586H43.6925Z" fill="#006FCF"/>
<path d="M41.4255 8.69022L39.8668 13.0502L38.3134 8.69022L29.3055 8.69022V14.5095L26.7426 8.69022H19.446L11.9521 25.6973L48.304 25.6973V8.69022H41.4255Z" fill="white"/>
<path fill-rule="evenodd" clip-rule="evenodd" d="M21.3338 18.1672L23.0997 13.9462L24.8644 18.1672H21.3338ZM20.8278 10.5385L14.9395 23.7982H18.9782L20.0889 21.1431H26.1084L27.2185 23.7982H31.3576L25.4937 10.5385H20.8278Z" fill="#006FCF"/>
<path d="M31.3018 23.7954L34.8724 23.7954V14.6874L38.2599 23.7954H41.4691L44.7877 14.7183V23.8264L48.3036 23.7954V10.5359H42.8399L39.8998 18.7071L36.9788 10.5554L31.3018 10.5358V23.7954Z" fill="#006FCF"/>
</svg>
