<svg width="36" height="36" viewBox="0 0 36 36" fill="none" xmlns="http://www.w3.org/2000/svg">
<path fill-rule="evenodd" clip-rule="evenodd" d="M8.3466 0C3.7096 0 0 3.69231 0 8.30769V27.6923C0 32.3077 3.7096 36 8.3466 36H27.6534C32.2904 36 36 32.3077 36 27.6923V8.30769C36 3.69231 32.2904 0 27.6534 0H8.3466ZM23.8595 13.4266C22.5105 12.2517 20.74 11.6643 18.9696 11.6643C17.452 11.6643 16.0187 12.1678 16.0187 13.5105C16.0187 14.7692 17.3677 15.2727 18.9696 15.8601C19.1382 15.9441 19.3068 15.9441 19.4754 16.028C22.6792 17.1189 25.377 18.4615 25.377 21.5664C25.377 25.007 22.6792 27.2727 18.3794 27.6084L17.9578 29.4545C17.8735 29.7902 17.6206 30.042 17.1991 30.042H14.5012C14.2482 30.042 14.0796 29.958 13.911 29.7902C13.7424 29.6224 13.7424 29.3706 13.7424 29.2028L14.1639 27.2727C12.5621 26.8531 11.0445 26.014 9.77986 24.8392C9.61124 24.6713 9.52693 24.5035 9.52693 24.3357C9.52693 24.1678 9.61124 23.9161 9.77986 23.8322L11.2974 22.3217C11.5504 22.0699 12.0562 22.0699 12.3091 22.3217C13.6581 23.6643 15.5972 24.3357 17.452 24.3357C19.3911 24.3357 20.74 23.4965 20.74 22.1538C20.74 20.979 19.644 20.5594 17.5363 19.8042C17.2834 19.7203 17.1148 19.6364 16.8618 19.5524C14.1639 18.6294 11.6347 17.2028 11.6347 14.0979C11.6347 10.4056 14.6698 8.64336 18.3794 8.47552L18.8009 6.62937C18.8009 6.04196 19.1382 5.87413 19.4754 5.87413H22.1733C22.4262 5.87413 22.5948 5.95804 22.7635 6.12587C22.9321 6.29371 22.9321 6.54545 22.9321 6.71329L22.5105 8.81119C23.8595 9.23077 25.2084 9.98601 26.3044 10.9091C26.4731 11.0769 26.5574 11.2448 26.5574 11.4126C26.5574 11.5804 26.4731 11.8322 26.3044 11.9161L24.8712 13.3427C24.6183 13.6783 24.1124 13.6783 23.8595 13.4266Z" fill="#00D54B"/>
</svg>
