<svg width="187" height="187" viewBox="0 0 187 187" fill="none" xmlns="http://www.w3.org/2000/svg">
<path d="M93.5 0C145.127 0 187 41.873 187 93.5C187 145.127 145.127 187 93.5 187C41.873 187 0 145.127 0 93.5C0 41.873 41.873 0 93.5 0Z" fill="white"/>
<path d="M93.5308 126.374C75.3693 126.374 60.6637 111.661 60.6637 93.4995C60.6637 75.3381 75.3768 60.6324 93.5308 60.6324C109.8 60.6324 123.309 72.4957 125.912 88.0242H159.026C156.228 54.2744 127.991 27.7578 93.5308 27.7578C57.2378 27.7578 27.7891 57.2066 27.7891 93.4995C27.7891 129.792 57.2378 159.241 93.5308 159.241C127.991 159.241 156.236 132.725 159.026 98.9749H125.882C123.279 114.511 109.8 126.374 93.5308 126.374Z" fill="#0052FF"/>
</svg>
