<svg width="42" height="42" viewBox="0 0 42 42" fill="none" xmlns="http://www.w3.org/2000/svg">
<rect width="42" height="42" rx="6" fill="white"/>
<path d="M33.3269 17.5294C32.1924 15.3235 29.8605 14 27.4025 14H8.62098C8.05376 14 7.80166 14.6933 8.17981 15.1345L12.2764 19.2311C12.6546 19.6092 13.0958 19.7983 13.663 19.7983H26.8983C27.7176 19.7983 28.4109 20.3655 28.6 21.1218C28.8521 22.2563 28.0328 23.2017 26.9613 23.2017H17.7596C17.1924 23.2017 16.8773 23.895 17.3185 24.3361L21.4151 28.4328C21.7933 28.8109 22.2975 29 22.8017 29H26.8983C32.2554 29 36.3521 23.2647 33.3269 17.5294Z" fill="#EF3B24"/>
</svg>
