<svg width="33" height="33" viewBox="0 0 33 33" fill="none" xmlns="http://www.w3.org/2000/svg">
<path d="M33 16.5606C33 7.41446 25.6127 -1.79885e-06 16.5 -1.79885e-06C7.38731 -1.79885e-06 0 7.41446 0 16.5606C0 24.3273 5.32719 30.844 12.514 32.6336V21.6213H9.11156V16.5606H12.514V14.38C12.514 8.74329 15.0555 6.13068 20.5692 6.13068C21.6145 6.13068 23.4182 6.33637 24.1561 6.54212V11.1297C23.7666 11.0885 23.0902 11.0679 22.2499 11.0679C19.5443 11.0679 18.4989 12.0966 18.4989 14.7709V16.5606H23.8884L22.9626 21.6213H18.4989V33C26.6688 32.0096 33 25.0276 33 16.5606Z" fill="#0866FF"/>
</svg>
