<svg width="41" height="11" viewBox="0 0 41 11" fill="none" xmlns="http://www.w3.org/2000/svg">
<path d="M41 6.89806e-09H38.1481L37.3773 2.14143H40.2293L41 6.89806e-09ZM3.95954 6.89806e-09H11.896L10.8839 2.81936H6.11626L5.48897 4.59987H9.53643L8.60055 7.21894H4.55309L3.16882 11H0L3.95954 6.89806e-09ZM12.7313 6.89806e-09H15.5832L11.6381 11H8.78617L12.7313 6.89806e-09ZM15.6207 3.00421H18.4726L15.5989 11H12.747L15.6207 3.00421ZM19.5672 3.00421H22.3183L21.9346 4.021H21.9634C22.6301 3.29693 23.5756 2.80393 24.483 2.80393C25.7938 2.80393 26.8207 3.38936 26.5617 4.96078C26.5033 5.31514 26.3203 5.90057 26.1086 6.486L24.4571 11H21.6051L22.9442 7.33336C23.1067 6.87114 23.3397 6.33193 23.393 6.00843C23.4769 5.5 23.1744 5.23807 22.7134 5.23807C21.8059 5.23807 21.3892 5.93136 21.0792 6.76329L19.5454 11H16.6934L19.5672 3.00421ZM29.4968 6.89806e-09H32.3487L30.4447 5.34593H30.4736L32.9626 3.00421H36.3762L32.4894 6.22407L33.6033 11H30.5066L29.9757 8.10364L29.226 8.71986L28.4036 11H25.5517L29.4968 6.89806e-09Z" fill="#E31C79"/>
</svg>
