<svg width="23" height="24" viewBox="0 0 23 24" fill="none" xmlns="http://www.w3.org/2000/svg">
<path d="M2.89723 16.2465L6.12043 13.7817C5.93613 13.222 5.83647 12.6231 5.83647 12.0002C5.83647 11.3773 5.93613 10.7785 6.12043 10.2187L2.89723 7.75391C2.26859 9.03199 1.91602 10.4729 1.91602 12.0002C1.91602 13.5275 2.26859 14.9684 2.89723 16.2465Z" fill="#FBBC05"/>
<path d="M6.11967 10.2188C6.86334 7.96006 8.98513 6.33745 11.4986 6.33745C12.849 6.33745 14.0687 6.81661 15.027 7.6007L17.8149 4.81283C16.116 3.33176 13.938 2.41699 11.4986 2.41699C7.71149 2.41699 4.45528 4.58483 2.89648 7.75401L6.11967 10.2188Z" fill="#EA4335"/>
<path d="M11.4989 21.5837C7.71076 21.5837 4.4538 19.4146 2.89551 16.244L6.11738 13.7739C6.85868 16.0368 8.98251 17.6632 11.4989 17.6632C12.7303 17.6632 13.8213 17.3733 14.6853 16.828L17.7453 19.1969C16.0702 20.7544 13.8364 21.5837 11.4989 21.5837Z" fill="#34A853"/>
<path d="M11.499 10.2578H20.4289C20.5596 10.8241 20.6468 11.4339 20.6468 12.0002C20.6468 15.1237 19.504 17.5616 17.7454 19.1968L14.6854 16.8278C15.6859 16.1964 16.3821 15.2227 16.6392 13.9605H11.499V10.2578Z" fill="#4285F4"/>
</svg>
