<svg width="36" height="44" viewBox="0 0 36 44" fill="none" xmlns="http://www.w3.org/2000/svg">
<path d="M14.2506 9.39932C13.9566 9.3993 13.6722 9.50424 13.4486 9.69525C13.225 9.88625 13.0769 10.1508 13.031 10.4412L11.0041 23.2938L9.14175 35.1038L9.14062 35.1137L9.14288 35.1038L11.0052 23.2938C11.0999 22.6936 11.6167 22.2519 12.2241 22.2519H18.1622C24.1382 22.2519 29.2104 17.8919 30.1368 11.9838C30.2074 11.5349 30.2452 11.0903 30.2537 10.6515V10.6508H30.253C28.7343 9.85405 26.9509 9.39932 24.9969 9.39932H14.2506Z" fill="#001C64"/>
<path d="M30.2527 10.6509C30.2444 11.0897 30.2062 11.5347 30.1358 11.9836C29.2094 17.8917 24.1372 22.2517 18.1612 22.2517H12.2231C11.6157 22.2517 11.0989 22.6934 11.0042 23.2937L9.14187 35.1036L7.97312 42.5131C7.95061 42.6563 7.95937 42.8026 7.9988 42.942C8.03823 43.0814 8.1074 43.2106 8.20154 43.3207C8.29568 43.4309 8.41257 43.5193 8.54415 43.5799C8.67573 43.6406 8.81888 43.672 8.96376 43.672H15.4092C15.7032 43.672 15.9876 43.5671 16.2112 43.3761C16.4348 43.1851 16.5829 42.9205 16.6288 42.6301L18.3267 31.862C18.4218 31.2618 18.9389 30.8194 19.5463 30.8194H23.3416C29.3176 30.8194 34.3892 26.4597 35.3155 20.552C35.9731 16.358 33.8625 12.5427 30.2527 10.6509Z" fill="#0070E0"/>
<path d="M6.92816 0.831269C6.634 0.831278 6.3495 0.936312 6.12591 1.12746C5.90232 1.3186 5.75432 1.5833 5.70856 1.87387L0.650959 33.9453C0.628339 34.0885 0.637025 34.2348 0.676407 34.3743C0.71579 34.5138 0.784936 34.6431 0.87909 34.7533C0.973244 34.8635 1.09017 34.952 1.22181 35.0127C1.35345 35.0734 1.49667 35.1048 1.64161 35.1048H9.14199L11.0043 23.2948L13.0313 10.4423C13.0772 10.1518 13.2252 9.88727 13.4488 9.69626C13.6724 9.50526 13.9568 9.40032 14.2509 9.40033L24.9966 9.40033C26.9512 9.40033 28.7346 9.85574 30.2535 10.6514C30.357 5.27267 25.9187 0.831269 19.8158 0.831269L6.92816 0.831269Z" fill="#003087"/>
</svg>
