<svg width="24" height="21" viewBox="0 0 24 21" fill="none" xmlns="http://www.w3.org/2000/svg">
<path d="M13.4535 0.892608C13.2793 0.894585 13.1109 0.955041 12.9763 1.06398C12.8417 1.17291 12.749 1.3238 12.7133 1.49168L11.5617 6.93042C9.06347 6.99923 6.80645 7.74697 5.14011 8.93551C4.68156 8.61372 4.12223 8.42272 3.51628 8.42272C1.96671 8.42272 0.710938 9.65866 0.710938 11.1838C0.710938 12.2641 1.34243 13.1973 2.26105 13.6507C2.25544 13.749 2.24112 13.8454 2.24112 13.9448C2.24112 17.8263 6.58022 20.9729 11.9323 20.9729C17.2844 20.9729 21.6235 17.8263 21.6235 13.9448C21.6235 13.8454 21.6091 13.749 21.6035 13.6507C22.5222 13.1973 23.1536 12.2641 23.1536 11.1838C23.1536 9.65866 21.8979 8.42272 20.3483 8.42272C19.7424 8.42272 19.183 8.61372 18.7245 8.93551C17.2408 7.87727 15.2888 7.16725 13.1158 6.97454L14.0582 2.52413L17.0977 3.09379C17.2989 3.84702 17.9905 4.40666 18.8181 4.40666C19.8025 4.40666 20.6033 3.61851 20.6033 2.64963C20.6033 1.68076 19.8025 0.892608 18.8181 0.892608C18.2282 0.892608 17.7078 1.17894 17.3826 1.61424L13.6059 0.906335C13.5557 0.896757 13.5047 0.892158 13.4535 0.892608ZM8.10683 10.9328C9.09278 10.9328 9.89205 11.7194 9.89205 12.6898C9.89205 13.6602 9.09278 14.4468 8.10683 14.4468C7.12088 14.4468 6.32162 13.6602 6.32162 12.6898C6.32162 11.7194 7.12088 10.9328 8.10683 10.9328ZM15.7578 10.9328C16.7437 10.9328 17.543 11.7194 17.543 12.6898C17.543 13.6602 16.7437 14.4468 15.7578 14.4468C14.7718 14.4468 13.9725 13.6602 13.9725 12.6898C13.9725 11.7194 14.7718 10.9328 15.7578 10.9328ZM8.61689 15.9528C8.81263 15.9528 9.00839 16.0263 9.15784 16.1734C9.18487 16.198 10.0257 16.9568 11.9313 16.9568C13.8558 16.9568 14.6981 16.1815 14.7058 16.1734C15.0046 15.8793 15.4887 15.8793 15.7876 16.1734C16.0865 16.4676 16.087 16.9446 15.7886 17.2382C15.6611 17.3637 14.4714 18.4619 11.9323 18.4619C9.39321 18.4619 8.20346 17.3637 8.07595 17.2382C7.77705 16.9446 7.77705 16.4676 8.07595 16.1734C8.2254 16.0263 8.42116 15.9528 8.61689 15.9528Z" fill="#FE4500"/>
</svg>
