<svg width="26" height="36" viewBox="0 0 26 36" fill="none" xmlns="http://www.w3.org/2000/svg">
<path d="M21.3938 0.588513C19.9621 0.557777 18.26 0.866714 16.332 1.50255C16.0427 1.60399 15.8141 1.76423 15.6081 1.96698C13.6471 3.80794 11.7394 5.75959 9.93613 7.77733L9.79778 7.93049C9.75945 7.97387 9.75478 8.03851 9.78298 8.08859C9.8122 8.13931 9.86925 8.1655 9.92627 8.15285L10.1288 8.11086C13.0349 7.4896 15.969 7.0127 18.8468 6.69779C19.0363 6.67692 19.2317 6.74181 19.373 6.87072C19.5143 7.00093 19.5967 7.18669 19.5929 7.37963C19.5453 10.2359 19.6473 13.1064 19.9017 15.9123L19.919 16.0951C19.9253 16.1512 19.9639 16.1963 20.0203 16.2113C20.0304 16.2138 20.0398 16.2163 20.0525 16.2163C20.095 16.2169 20.1377 16.1968 20.1636 16.1595L20.2699 16.0088C21.8913 13.6952 23.6565 11.4461 25.512 9.31903C25.7199 9.08238 25.7744 8.93352 25.8134 8.71872C26.3976 4.97978 25.496 2.21459 24.6894 1.51508C23.9889 0.907758 22.9724 0.622423 21.3938 0.588513ZM16.9421 8.16271L16.7643 8.18738C13.9878 8.56976 11.177 9.09952 8.40942 9.76101C8.13508 9.83766 7.95894 10.016 7.92029 10.0575C5.84901 12.5381 3.88717 15.1489 2.08771 17.8244C1.99778 17.9596 1.98893 18.2838 1.98893 18.2838C1.98893 18.2838 2.44038 21.7689 3.10061 24.3363C1.46462 29.0412 0.00520705 35.2406 0.00520705 35.2406C-0.00617649 35.2808 0.00141521 35.3228 0.0249412 35.3567C0.0496055 35.3906 0.0886885 35.4122 0.131187 35.4135H1.06252C1.12146 35.4144 1.17282 35.3787 1.19346 35.3246L1.25771 35.1492C2.20812 32.5567 3.29144 29.9975 4.48897 27.5033C4.76776 26.9223 5.35607 25.7493 5.35607 25.7493C5.45271 25.5589 5.90409 24.6932 6.00578 24.4993L6.02312 24.4648C9.03848 18.7765 12.7144 13.4112 16.9447 8.51845L17.0608 8.38505C17.0966 8.34255 17.1041 8.28095 17.0781 8.23189C17.0503 8.18243 16.996 8.15538 16.9421 8.16271ZM18.2218 9.23485C18.1696 9.21525 18.1094 9.22853 18.0736 9.27191L17.9575 9.40778C13.0248 15.1125 8.87928 21.4444 5.63519 28.2272L5.55854 28.3853C5.53387 28.4354 5.54336 28.4957 5.5808 28.536C5.60648 28.5625 5.64038 28.5776 5.67718 28.578C5.69363 28.5786 5.71475 28.5754 5.73157 28.5679L5.89461 28.4987C8.66508 27.3509 11.4952 26.3564 14.3063 25.5441C14.4745 25.4953 14.6146 25.3785 14.6941 25.2229C15.9265 22.8212 18.7876 18.1725 18.7876 18.1725C18.861 18.0676 18.8443 17.9106 18.8443 17.9106C18.8443 17.9106 18.3418 12.3502 18.3107 9.53599L18.3082 9.35812C18.3057 9.30234 18.2732 9.25357 18.2218 9.23485ZM10.907 27.9085L10.6772 27.9875C9.18794 28.4824 6.98458 29.243 5.0077 30.1516C4.90183 30.2013 4.83231 30.3394 4.83231 30.3394C4.79551 30.424 4.75085 30.5297 4.6989 30.6482L4.69132 30.663C4.46987 31.167 4.16256 31.9256 4.03172 32.2341L3.93042 32.4787C3.91461 32.5174 3.9241 32.5607 3.95508 32.5899C3.97342 32.6073 3.99454 32.6161 4.02174 32.6171C4.03565 32.6171 4.05159 32.6145 4.06626 32.6069L4.30588 32.4934C4.84667 32.2361 5.53219 31.8464 6.25007 31.5052L6.27474 31.4926C7.63986 30.845 9.18054 30.1141 10.1088 29.6719C10.1088 29.6712 10.2582 29.5913 10.3336 29.4421L11.0278 28.0488C11.0461 28.0124 11.0408 27.9688 11.0151 27.9377C10.9869 27.9073 10.9455 27.8957 10.907 27.9085Z" fill="white"/>
</svg>
