<svg width="60" height="60" viewBox="0 0 60 60" fill="none" xmlns="http://www.w3.org/2000/svg">
<path d="M30.291 0.65303C24.4955 0.653224 18.8302 2.37196 14.0116 5.59191C9.19289 8.81185 5.43723 13.3884 3.21953 18.7428C1.00182 24.0972 0.421671 29.9889 1.55243 35.673C2.6832 41.3571 5.47409 46.5783 9.57219 50.6763C13.6703 54.7742 18.8915 57.5649 24.5757 58.6955C30.2598 59.8261 36.1516 59.2457 41.5059 57.0279C46.8602 54.81 51.4366 51.0542 54.6564 46.2354C57.8762 41.4166 59.5947 35.7513 59.5947 29.9558C59.5947 26.1076 58.8368 22.2971 57.3641 18.7419C55.8914 15.1866 53.7329 11.9563 51.0118 9.23526C48.2907 6.51423 45.0603 4.35583 41.505 2.88329C37.9497 1.41075 34.1392 0.652902 30.291 0.65303ZM43.7293 42.9156C43.6042 43.1205 43.44 43.2986 43.246 43.4399C43.052 43.5812 42.8321 43.6829 42.5987 43.7391C42.3654 43.7954 42.1233 43.805 41.8862 43.7676C41.6492 43.7302 41.4218 43.6463 41.2172 43.521C34.337 39.3227 25.6759 38.3669 15.4761 40.6974C15.2415 40.7528 14.9983 40.7612 14.7605 40.7222C14.5226 40.6832 14.2949 40.5975 14.0903 40.47C13.8857 40.3425 13.7084 40.1759 13.5685 39.9796C13.4287 39.7833 13.329 39.5612 13.2754 39.3262C13.2217 39.0913 13.2151 38.848 13.2559 38.6104C13.2967 38.3729 13.3841 38.1457 13.5131 37.9421C13.642 37.7385 13.81 37.5624 14.0074 37.424C14.2047 37.2856 14.4275 37.1876 14.6628 37.1357C25.8253 34.5855 35.4002 35.6839 43.124 40.4035C43.3287 40.5287 43.5068 40.6929 43.648 40.8869C43.7892 41.0809 43.8909 41.3009 43.9471 41.5342C44.0033 41.7674 44.013 42.0095 43.9756 42.2466C43.9383 42.4836 43.8546 42.7109 43.7293 42.9156ZM47.3124 34.937C46.9956 35.4534 46.4866 35.8229 45.8974 35.964C45.3082 36.1052 44.6871 36.0066 44.1706 35.6898C36.2935 30.8481 24.2875 29.4461 14.9714 32.2726C14.6824 32.3669 14.3775 32.4026 14.0745 32.3776C13.7716 32.3526 13.4767 32.2674 13.2071 32.127C12.9375 31.9866 12.6986 31.7938 12.5045 31.5598C12.3104 31.3259 12.1648 31.0556 12.0765 30.7648C11.9881 30.4739 11.9587 30.1684 11.9899 29.866C12.0212 29.5636 12.1124 29.2705 12.2584 29.0039C12.4043 28.7372 12.602 28.5024 12.8399 28.3131C13.0777 28.1238 13.3509 27.9839 13.6435 27.9016C24.2856 24.6728 37.5159 26.2369 46.5607 31.7952C46.8163 31.952 47.0386 32.1576 47.2148 32.4003C47.391 32.643 47.5177 32.918 47.5876 33.2097C47.6575 33.5014 47.6693 33.8039 47.6222 34.1001C47.5752 34.3964 47.4702 34.6804 47.3134 34.936L47.3124 34.937ZM47.62 26.6284C38.1759 21.0194 22.5946 20.5029 13.5772 23.2396C13.2319 23.3471 12.8688 23.3852 12.5088 23.3518C12.1487 23.3184 11.7988 23.214 11.4793 23.0448C11.1598 22.8755 10.8769 22.6447 10.647 22.3656C10.417 22.0866 10.2446 21.7647 10.1396 21.4187C10.0346 21.0727 9.99914 20.7093 10.0352 20.3495C10.0713 19.9897 10.1782 19.6406 10.3498 19.3224C10.5214 19.0041 10.7543 18.7229 11.0351 18.495C11.3159 18.2672 11.6389 18.0971 11.9857 17.9947C22.3349 14.8528 39.5438 15.4562 50.4172 21.9147C50.7315 22.0958 51.0067 22.3376 51.2268 22.626C51.447 22.9143 51.6077 23.2435 51.6996 23.5944C51.7916 23.9454 51.8129 24.3111 51.7624 24.6703C51.712 25.0296 51.5907 25.3752 51.4056 25.6872C51.2205 25.9992 50.9753 26.2714 50.6842 26.4879C50.3931 26.7044 50.062 26.861 49.7099 26.9486C49.3579 27.0361 48.9919 27.0529 48.6333 26.9979C48.2748 26.943 47.9297 26.8174 47.62 26.6284Z" fill="#1ED760"/>
</svg>
