<svg width="21" height="17" viewBox="0 0 21 17" fill="none" xmlns="http://www.w3.org/2000/svg">
<path fill-rule="evenodd" clip-rule="evenodd" d="M1.36824 8.83178L5.74182 10.2568C5.81553 10.2696 5.89123 10.265 5.96284 10.2433L5.96566 10.2416C6.97464 9.6044 15.9727 3.9222 16.4922 3.73107C16.5741 3.70628 16.635 3.73421 16.6189 3.79081C16.4105 4.52138 8.58123 11.4806 8.58123 11.4806C8.58123 11.4806 8.54896 11.5174 8.53026 11.5624L8.5202 11.5564L8.11205 15.8941C8.11205 15.8941 7.94121 17.2233 9.27004 15.8941C10.2069 14.9571 11.1155 14.1712 11.57 13.7891C13.0738 14.8275 14.6929 15.9765 15.3913 16.5772C15.5082 16.6907 15.6469 16.7795 15.7989 16.8383C15.9509 16.8971 16.1132 16.9247 16.2761 16.9194C16.939 16.8945 17.1241 16.1663 17.1241 16.1663C17.1241 16.1663 20.2166 3.72211 20.32 2.05473C20.324 1.99153 20.3284 1.93719 20.3325 1.88782C20.339 1.80966 20.3444 1.74393 20.3452 1.6751C20.3506 1.54528 20.3378 1.41535 20.3073 1.28906C20.2917 1.21756 20.2575 1.15146 20.208 1.09754C20.1586 1.04362 20.0957 1.0038 20.0258 0.982165C19.7432 0.874789 19.2641 1.03623 19.2641 1.03623C19.2641 1.03623 2.29654 7.13483 1.32747 7.8103C1.1184 7.95531 1.04851 8.03968 1.01386 8.13884C0.845554 8.61972 1.36824 8.83178 1.36824 8.83178Z" fill="#05ADFF"/>
</svg>
