<svg width="46" height="46" viewBox="0 0 46 46" fill="none" xmlns="http://www.w3.org/2000/svg">
<path d="M0 7C0 3.13401 3.13401 0 7 0H39C42.866 0 46 3.13401 46 7V39C46 42.866 42.866 46 39 46H7C3.13401 46 0 42.866 0 39V7Z" fill="white"/>
<path fill-rule="evenodd" clip-rule="evenodd" d="M19.7591 16.6176L13.5 18.655V24.4938L19.7591 22.4565C20.2539 22.3074 20.7734 22.3074 21.2682 22.4813L23.569 23.2764C24.0638 23.4503 24.5833 23.4503 25.0781 23.3012L32.4753 21.2638V15.425L25.0781 17.4624C24.5833 17.6115 24.0638 17.6115 23.569 17.4375L21.2682 16.6425C20.7982 16.4934 20.2539 16.4685 19.7591 16.6176ZM19.7591 23.6988L13.5 25.7362V31.575L19.7591 29.5376C20.2539 29.3885 20.7734 29.3885 21.2682 29.5625L23.569 30.3575C24.0638 30.5315 24.5833 30.5315 25.0781 30.3824L32.5 28.345V22.5062L25.1029 24.5435C24.6081 24.6926 24.0885 24.6926 23.5938 24.5187L21.293 23.7236C20.7982 23.5745 20.2539 23.5497 19.7591 23.6988Z" fill="black"/>
</svg>
