<svg width="37" height="35" viewBox="0 0 37 35" fill="none" xmlns="http://www.w3.org/2000/svg">
<path d="M32.0879 0H4C1.79086 0 0 1.79086 0 4V30.3694C0 32.5785 1.79086 34.3694 4 34.3694H32.0879C34.297 34.3694 36.0879 32.5785 36.0879 30.3694V4C36.0879 1.79086 34.297 0 32.0879 0Z" fill="black"/>
<path d="M4.57386 18.1589V12.3143H3.08789V18.2324C3.08789 20.4563 4.72825 21.9267 6.85106 21.9267C7.89317 21.9267 8.80019 21.5407 9.47564 20.879V21.7613H10.9423V12.3143H9.45634V18.1589C9.45634 19.666 8.39493 20.6769 7.02475 20.6769C5.63527 20.6585 4.57386 19.6844 4.57386 18.1589ZM12.409 21.7796H13.8178V20.9158C14.4739 21.5591 15.4002 21.9451 16.4037 21.9451C18.5266 21.9451 20.2055 20.346 20.2055 18.3427C20.2055 16.3393 18.5266 14.7403 16.4037 14.7403C15.4002 14.7403 14.4932 15.1263 13.8371 15.7696V12.3143H12.409V21.7796ZM13.8178 18.3427C13.8178 17.001 14.9371 15.9534 16.3072 15.9534C17.6774 15.9534 18.7967 17.001 18.7967 18.3427C18.7967 19.666 17.6774 20.732 16.3072 20.732C14.9178 20.732 13.8178 19.666 13.8178 18.3427ZM21.0546 18.3243C21.0546 20.3828 22.7336 21.9267 24.895 21.9267C26.2073 21.9267 27.288 21.3753 28.0213 20.4563L26.9792 19.7212C26.4389 20.4012 25.7248 20.732 24.895 20.732C23.6792 20.732 22.695 19.8866 22.502 18.7654H28.388V18.3243C28.388 16.2658 26.8634 14.7403 24.7792 14.7403C22.6564 14.7403 21.0546 16.3761 21.0546 18.3243ZM24.7406 15.935C25.802 15.935 26.6897 16.6334 26.9406 17.6994H22.5213C22.7915 16.6334 23.6792 15.935 24.7406 15.935ZM33.1547 16.1004V14.8322H32.6529C31.8617 14.8322 31.2827 15.1814 30.9161 15.7328V14.8874H29.5266V21.7796H30.9547V17.8465C30.9547 16.7805 31.6301 16.082 32.5757 16.082H33.1547V16.1004Z" fill="white"/>
</svg>
