<svg width="19" height="18" viewBox="0 0 19 18" fill="none" xmlns="http://www.w3.org/2000/svg">
<path d="M9.56373 0.113281C4.72367 0.113281 0.778925 4.0383 0.778925 8.85416C0.778925 10.3977 1.1867 11.8972 1.94905 13.2202L0.708008 17.7538L5.36192 16.5366C6.64728 17.2334 8.09221 17.6039 9.56373 17.6039C14.4038 17.6039 18.3485 13.6789 18.3485 8.86298C18.3485 6.52561 17.4355 4.32937 15.7778 2.67998C14.1201 1.02177 11.9128 0.113281 9.56373 0.113281ZM9.5726 1.58627C11.5228 1.58627 13.3489 2.34481 14.7318 3.72077C16.1058 5.09673 16.8682 6.92253 16.8682 8.86298C16.8682 12.8674 13.5883 16.1221 9.56373 16.1221C8.25177 16.1221 6.96641 15.7781 5.84947 15.1077L5.58353 14.9578L2.81778 15.681L3.55354 12.9997L3.37625 12.7174C2.64935 11.5796 2.25931 10.2301 2.25931 8.85416C2.26818 4.84976 5.53921 1.58627 9.5726 1.58627ZM6.45226 4.81448C6.31043 4.81448 6.07108 4.8674 5.8672 5.08791C5.67218 5.30842 5.09598 5.84645 5.09598 6.91371C5.09598 7.98978 5.88493 9.02175 5.98244 9.17169C6.10654 9.32164 7.5426 11.5267 9.74989 12.4617C10.2729 12.6998 10.6807 12.8321 10.9998 12.9291C11.5228 13.0967 12.0015 13.0703 12.3827 13.0173C12.8082 12.9556 13.6769 12.4881 13.8631 11.9765C14.0492 11.465 14.0492 11.0328 13.996 10.9357C13.934 10.8475 13.7921 10.7946 13.5705 10.6976C13.3489 10.5741 12.2674 10.0449 12.0724 9.97434C11.8685 9.90378 11.7444 9.86849 11.576 10.0802C11.4342 10.3007 11.0087 10.7946 10.8846 10.9357C10.7516 11.0857 10.6275 11.1033 10.4147 10.9975C10.1843 10.8828 9.47509 10.6535 8.64181 9.9126C7.98583 9.33046 7.55147 8.61602 7.4185 8.39551C7.31213 8.18382 7.40964 8.05152 7.51601 7.9545C7.61352 7.85747 7.75536 7.69871 7.844 7.56641C7.95924 7.44292 7.9947 7.3459 8.06562 7.20477C8.13653 7.05483 8.10107 6.93135 8.04789 6.8255C7.9947 6.72848 7.55147 5.63477 7.36531 5.20257C7.18802 4.7792 7.01073 4.83212 6.8689 4.8233C6.74479 4.8233 6.60296 4.81448 6.45226 4.81448Z" fill="#29D168"/>
</svg>
