<svg width="30" height="30" viewBox="0 0 30 30" fill="none" xmlns="http://www.w3.org/2000/svg">
<path fill-rule="evenodd" clip-rule="evenodd" d="M6.52177 30C5.419 30 4.80584 29.7397 4.47791 29.5506C4.0249 29.2873 3.19058 28.6169 2.44167 26.6346C1.24128 23.4552 0.530505 19.5723 0.5 15.0113V14.9962C0.530505 10.4262 1.24128 6.54477 2.44167 3.36393C3.18905 1.3831 4.02338 0.711223 4.48096 0.449433C4.80432 0.257251 5.41595 0 6.5172 0C6.93817 0 7.43236 0.037831 8.00586 0.130139C11.3401 0.674905 15.0328 1.99596 18.9726 4.25069L18.9848 4.25675C22.8925 6.56595 25.876 9.12484 28.0098 11.7624C29.3414 13.4088 29.5 14.4711 29.5 14.9977C29.5 15.5243 29.3414 16.5897 28.0098 18.233C25.8744 20.8706 22.8925 23.431 18.9848 25.7387L18.9695 25.7478C15.0343 28.0025 11.3401 29.3236 8.00586 29.8668C7.43084 29.9622 6.93817 29.9985 6.52025 29.9985" fill="#FF6900"/>
</svg>
